<svg id="a0f99a15-9f7c-4686-8854-766108f072b9" data-name="Z2C" xmlns="http://www.w3.org/2000/svg" viewBox="0 0 987.16 604.5"><defs><style>.b54e9f0f-36c9-45cb-bfdb-169a928358d5{fill:#cc2936;}.b9b1a6be-e405-4659-88c7-a90e40ff9692{fill:#9E9E9E;}.a204aefa-f1b6-4ce5-a293-736bda06d787{fill:#08c;}</style></defs><path class="b54e9f0f-36c9-45cb-bfdb-169a928358d5" d="M22.46,669.28,240.24,338.2H43.49V237.11h346v73.27L171.72,640.79H391.54V742.56H22.46Z" transform="translate(-22.46 -228.29)"/><path class="b9b1a6be-e405-4659-88c7-a90e40ff9692" d="M382.83,792.45c79.5-60.92,148.33-118.27,148.33-163,0-26.9-21-41.54-44.3-41.54-25.71,0-43.12,12.27-67.64,36.79l-40.34-40c32-35.6,72-52.61,111.14-52.61,62.1,0,109.57,32.83,109.57,94.93,0,55.77-46.68,101.26-103.63,150.31,15.82-1.59,28.87-3.17,42.71-3.17h72.78v58.54H382.83Z" transform="translate(-22.46 -228.29)"/><path class="a204aefa-f1b6-4ce5-a293-736bda06d787" d="M608,492.89c0-168.26,112.63-264.6,240.86-264.6,65.8,0,118.72,30.53,153.33,65.81l-63.1,77.34c-25.78-23.06-52.24-39.35-88.2-39.35-65.13,0-118.73,58.35-118.73,156.73,0,100.41,46.14,158.75,117.37,158.75,40.71,0,72.6-20.35,96.34-46.13l63.78,76c-42.74,49.53-99.06,74.63-164.87,74.63C716.53,752.05,608,663.86,608,492.89Z" transform="translate(-22.46 -228.29)"/></svg>